HIERARCHY
ROOT Hips
{
	OFFSET 0.000000 97.167313 0.000000
	CHANNELS 6 Xposition Yposition Zposition Xrotation Yrotation Zrotation
	JOINT Spine
	{
		OFFSET 0.000000 13.784798 0.064400
		CHANNELS 3 Xrotation Yrotation Zrotation
		JOINT Spine1
		{
			OFFSET 0.000000 12.037903 0.404700
			CHANNELS 3 Xrotation Yrotation Zrotation
			JOINT Spine2
			{
				OFFSET 0.000000 17.795601 0.420200
				CHANNELS 3 Xrotation Yrotation Zrotation
				JOINT Neck
				{
					OFFSET 0.000000 39.131302 11.954600
					CHANNELS 3 Xrotation Yrotation Zrotation
					JOINT Head
					{
						OFFSET 0.000000 14.456192 15.627699
						CHANNELS 3 Xrotation Yrotation Zrotation
						JOINT HeadTop_End
						{
							OFFSET 0.000000 15.703506 7.603401
							CHANNELS 3 Xrotation Yrotation Zrotation
							End Site
							{
								OFFSET 0.000000 17.447403 0.000000
							}
						}
					}
				}
				JOINT LeftShoulder
				{
					OFFSET 17.399500 24.608795 1.168800
					CHANNELS 3 Xrotation Yrotation Zrotation
					JOINT LeftArm
					{
						OFFSET 18.980635 5.765305 1.818600
						CHANNELS 3 Xrotation Yrotation Zrotation
						JOINT LeftForeArm
						{
							OFFSET 49.290169 0.000000 0.000000
							CHANNELS 3 Xrotation Yrotation Zrotation
							JOINT LeftHand
							{
								OFFSET 31.562012 0.000000 0.000000
								CHANNELS 3 Xrotation Yrotation Zrotation
								JOINT LeftHandThumb1
								{
									OFFSET 6.133995 -4.388519 7.076070
									CHANNELS 3 Xrotation Yrotation Zrotation
									JOINT LeftHandThumb2
									{
										OFFSET 6.037666 -3.485840 3.485847
										CHANNELS 3 Xrotation Yrotation Zrotation
										JOINT LeftHandThumb3
										{
											OFFSET 6.496506 -3.750763 3.750761
											CHANNELS 3 Xrotation Yrotation Zrotation
											JOINT LeftHandThumb4
											{
												OFFSET 5.616882 -3.242905 3.242910
												CHANNELS 3 Xrotation Yrotation Zrotation
												End Site
												{
													OFFSET -1.254608 7.132141 0.375429
												}
											}
										}
									}
								}
								JOINT LeftHandPinky1
								{
									OFFSET 18.920792 -0.453171 -11.426712
									CHANNELS 3 Xrotation Yrotation Zrotation
									JOINT LeftHandPinky2
									{
										OFFSET 4.919586 0.000000 0.000000
										CHANNELS 3 Xrotation Yrotation Zrotation
										JOINT LeftHandPinky3
										{
											OFFSET 5.233047 0.000000 0.000000
											CHANNELS 3 Xrotation Yrotation Zrotation
											JOINT LeftHandPinky4
											{
												OFFSET 5.571716 0.000000 0.000000
												CHANNELS 3 Xrotation Yrotation Zrotation
												End Site
												{
													OFFSET -3.459808 4.342407 -0.466164
												}
											}
										}
									}
								}
								JOINT LeftHandRing1
								{
									OFFSET 22.726120 -0.094986 -6.500475
									CHANNELS 3 Xrotation Yrotation Zrotation
									JOINT LeftHandRing2
									{
										OFFSET 6.408615 0.000000 0.000000
										CHANNELS 3 Xrotation Yrotation Zrotation
										JOINT LeftHandRing3
										{
											OFFSET 6.150223 0.000000 0.000000
											CHANNELS 3 Xrotation Yrotation Zrotation
											JOINT LeftHandRing4
											{
												OFFSET 6.145386 0.000000 0.000000
												CHANNELS 3 Xrotation Yrotation Zrotation
												End Site
												{
													OFFSET -3.671402 4.923981 -0.202372
												}
											}
										}
									}
								}
								JOINT LeftHandMiddle1
								{
									OFFSET 23.373947 0.000000 0.000001
									CHANNELS 3 Xrotation Yrotation Zrotation
									JOINT LeftHandMiddle2
									{
										OFFSET 6.996567 0.000000 0.000000
										CHANNELS 3 Xrotation Yrotation Zrotation
										JOINT LeftHandMiddle3
										{
											OFFSET 7.015945 0.000000 0.000000
											CHANNELS 3 Xrotation Yrotation Zrotation
											JOINT LeftHandMiddle4
											{
												OFFSET 7.721573 0.000000 0.000000
												CHANNELS 3 Xrotation Yrotation Zrotation
												End Site
												{
													OFFSET -4.651108 6.158463 0.251582
												}
											}
										}
									}
								}
								JOINT LeftHandIndex1
								{
									OFFSET 21.310577 -0.490082 6.209344
									CHANNELS 3 Xrotation Yrotation Zrotation
									JOINT LeftHandIndex2
									{
										OFFSET 7.536453 0.000000 0.000000
										CHANNELS 3 Xrotation Yrotation Zrotation
										JOINT LeftHandIndex3
										{
											OFFSET 7.512344 0.000000 0.000000
											CHANNELS 3 Xrotation Yrotation Zrotation
											JOINT LeftHandIndex4
											{
												OFFSET 10.212402 0.000000 0.000001
												CHANNELS 3 Xrotation Yrotation Zrotation
												End Site
												{
													OFFSET -5.180801 8.690506 1.388433
												}
											}
										}
									}
								}
							}
						}
					}
				}
				JOINT RightShoulder
				{
					OFFSET -17.399500 24.608795 1.168800
					CHANNELS 3 Xrotation Yrotation Zrotation
					JOINT RightArm
					{
						OFFSET -18.980635 5.765305 1.818600
						CHANNELS 3 Xrotation Yrotation Zrotation
						JOINT RightForeArm
						{
							OFFSET -49.290169 0.000000 0.000000
							CHANNELS 3 Xrotation Yrotation Zrotation
							JOINT RightHand
							{
								OFFSET -31.562012 0.000000 0.000000
								CHANNELS 3 Xrotation Yrotation Zrotation
								JOINT RightHandThumb1
								{
									OFFSET -6.133995 -4.388519 7.076070
									CHANNELS 3 Xrotation Yrotation Zrotation
									JOINT RightHandThumb2
									{
										OFFSET -6.037666 -3.485840 3.485847
										CHANNELS 3 Xrotation Yrotation Zrotation
										JOINT RightHandThumb3
										{
											OFFSET -6.496506 -3.750763 3.750761
											CHANNELS 3 Xrotation Yrotation Zrotation
											JOINT RightHandThumb4
											{
												OFFSET -5.616882 -3.242905 3.242910
												CHANNELS 3 Xrotation Yrotation Zrotation
												End Site
												{
													OFFSET 1.254608 7.132141 0.375429
												}
											}
										}
									}
								}
								JOINT RightHandIndex1
								{
									OFFSET -21.310577 -0.490082 6.209344
									CHANNELS 3 Xrotation Yrotation Zrotation
									JOINT RightHandIndex2
									{
										OFFSET -7.536453 0.000000 0.000000
										CHANNELS 3 Xrotation Yrotation Zrotation
										JOINT RightHandIndex3
										{
											OFFSET -7.512344 0.000000 0.000000
											CHANNELS 3 Xrotation Yrotation Zrotation
											JOINT RightHandIndex4
											{
												OFFSET -10.212402 0.000000 0.000001
												CHANNELS 3 Xrotation Yrotation Zrotation
												End Site
												{
													OFFSET 5.180801 8.690506 1.388433
												}
											}
										}
									}
								}
								JOINT RightHandMiddle1
								{
									OFFSET -23.373947 0.000000 0.000001
									CHANNELS 3 Xrotation Yrotation Zrotation
									JOINT RightHandMiddle2
									{
										OFFSET -6.996567 0.000000 0.000000
										CHANNELS 3 Xrotation Yrotation Zrotation
										JOINT RightHandMiddle3
										{
											OFFSET -7.015945 0.000000 0.000000
											CHANNELS 3 Xrotation Yrotation Zrotation
											JOINT RightHandMiddle4
											{
												OFFSET -7.721573 0.000000 0.000000
												CHANNELS 3 Xrotation Yrotation Zrotation
												End Site
												{
													OFFSET 4.651108 6.158463 0.251582
												}
											}
										}
									}
								}
								JOINT RightHandRing1
								{
									OFFSET -22.726120 -0.094986 -6.500475
									CHANNELS 3 Xrotation Yrotation Zrotation
									JOINT RightHandRing2
									{
										OFFSET -6.408615 0.000000 0.000000
										CHANNELS 3 Xrotation Yrotation Zrotation
										JOINT RightHandRing3
										{
											OFFSET -6.150223 0.000000 0.000000
											CHANNELS 3 Xrotation Yrotation Zrotation
											JOINT RightHandRing4
											{
												OFFSET -6.145386 0.000000 0.000000
												CHANNELS 3 Xrotation Yrotation Zrotation
												End Site
												{
													OFFSET 3.671402 4.923981 -0.202372
												}
											}
										}
									}
								}
								JOINT RightHandPinky1
								{
									OFFSET -18.920792 -0.453171 -11.426712
									CHANNELS 3 Xrotation Yrotation Zrotation
									JOINT RightHandPinky2
									{
										OFFSET -4.919586 0.000000 0.000000
										CHANNELS 3 Xrotation Yrotation Zrotation
										JOINT RightHandPinky3
										{
											OFFSET -5.233047 0.000000 0.000000
											CHANNELS 3 Xrotation Yrotation Zrotation
											JOINT RightHandPinky4
											{
												OFFSET -5.571716 0.000000 0.000000
												CHANNELS 3 Xrotation Yrotation Zrotation
												End Site
												{
													OFFSET 3.459808 4.342407 -0.466164
												}
											}
										}
									}
								}
							}
						}
					}
				}
			}
		}
	}
	JOINT LeftUpLeg
	{
		OFFSET 19.899099 -7.885101 -3.429500
		CHANNELS 3 Xrotation Yrotation Zrotation
		JOINT LeftLeg
		{
			OFFSET 1.745560 -36.997807 10.304700
			CHANNELS 3 Xrotation Yrotation Zrotation
			JOINT LeftFoot
			{
				OFFSET -1.745558 -29.803308 -13.615400
				CHANNELS 3 Xrotation Yrotation Zrotation
				JOINT LeftToeBase
				{
					OFFSET 1.181900 -18.539904 15.226099
					CHANNELS 3 Xrotation Yrotation Zrotation
					JOINT LeftToe_End
					{
						OFFSET -0.863701 1.402801 16.534700
						CHANNELS 3 Xrotation Yrotation Zrotation
						End Site
						{
							OFFSET 0.000000 16.616566 0.000000
						}
					}
				}
			}
		}
	}
	JOINT RightUpLeg
	{
		OFFSET -19.899099 -7.885101 -3.429500
		CHANNELS 3 Xrotation Yrotation Zrotation
		JOINT RightLeg
		{
			OFFSET -1.745560 -36.997807 10.304700
			CHANNELS 3 Xrotation Yrotation Zrotation
			JOINT RightFoot
			{
				OFFSET 1.745558 -29.803308 -13.615400
				CHANNELS 3 Xrotation Yrotation Zrotation
				JOINT RightToeBase
				{
					OFFSET -1.181900 -18.539904 15.226099
					CHANNELS 3 Xrotation Yrotation Zrotation
					JOINT RightToe_End
					{
						OFFSET 0.863701 1.402801 16.534700
						CHANNELS 3 Xrotation Yrotation Zrotation
						End Site
						{
							OFFSET 0.000000 16.616566 0.000000
						}
					}
				}
			}
		}
	}
}
MOTION
Frames: 4
Frame Time: 0.033333
-3.359494 79.108101 3.172091 4.493520 -26.903166 3.091516 12.204366 -0.028404 -0.707264 -0.083546 0.175932 1.625675 0.225152 0.170171 1.291986 -4.118384 12.794644 -3.132898 -15.421648 9.513198 -1.646097 0.000001 0.000000 -0.000000 -0.146917 -11.571549 -0.047033 -57.248566 -1.506169 -32.529462 20.666925 -68.683078 24.366809 -49.101806 -2.242956 5.290831 17.551617 -5.699176 -12.932308 10.850487 26.127717 8.644874 20.926873 51.115872 0.218860 0.000001 0.000004 -0.000001 10.030105 13.637037 -84.750217 0.877151 0.062260 -64.595496 1.141251 1.253158 -55.016252 -0.000001 0.000002 -0.000005 8.574358 2.179140 -75.149040 -0.207618 1.009281 -57.855029 0.443104 1.742172 -53.581304 -0.000000 0.000000 0.000003 7.504729 1.174532 -63.778496 1.807740 1.475709 -64.567937 0.130374 -0.912267 -43.272496 0.000004 -0.000004 0.000008 13.980915 1.201529 -55.004412 0.370869 1.161698 -65.441846 1.983993 2.147984 -57.665149 -0.000002 0.000003 0.000001 4.101824 11.315337 11.089192 -37.980793 -33.931827 22.852650 -11.243135 51.239331 9.351364 7.472663 22.162468 -3.547343 13.238985 -2.462808 -20.652347 -9.031491 -25.690481 4.429979 -8.959975 0.264136 2.770142 0.000001 0.000000 0.000001 5.329094 3.834767 16.363767 -1.530498 -3.085380 15.979316 -0.828360 -5.354627 7.732365 -0.000001 -0.000003 0.000003 0.417516 -4.114901 23.266418 1.472536 -4.873998 17.655274 -0.350162 -1.349883 9.093298 -0.000002 -0.000000 -0.000004 -0.087761 -8.643175 15.304837 5.328676 -2.976807 25.535260 2.816476 -2.774557 3.923702 -0.000002 0.000001 -0.000005 -2.847426 -10.374391 16.776037 11.766106 -1.222630 22.059822 7.037295 -2.832448 0.583598 -0.000001 -0.000000 0.000006 -28.204016 13.520926 20.705845 50.805614 5.579183 -4.141639 -24.431127 -0.320105 -13.089435 -0.145221 -0.004598 -0.122775 0.000000 -0.000000 0.000000 -21.930248 2.022994 -12.762637 49.745238 10.979636 1.774205 -32.594424 -2.138342 4.363581 -1.320721 -0.103334 0.081512 0.000000 0.000000 -0.000000 
-2.712257 71.365814 2.313774 2.876179 -28.187323 2.233282 15.239974 0.563003 -1.772968 0.813133 0.441965 1.713887 -0.597421 0.628197 1.601513 -8.900950 13.584264 -2.670100 -13.255542 10.032674 -0.847390 0.000001 -0.000000 -0.000000 -0.161571 -10.736373 -0.035023 -57.103213 -1.438523 -34.129140 19.152817 -71.299723 22.117018 -49.397936 -1.144924 5.398242 17.551616 -5.699179 -12.932303 10.850486 26.127714 8.644877 20.926871 51.115869 0.218851 0.000002 -0.000003 0.000001 10.030106 13.637036 -84.750217 0.877149 0.062263 -64.595496 1.141251 1.253158 -55.016252 0.000001 0.000003 -0.000000 8.574357 2.179141 -75.149033 -0.207617 1.009281 -57.855029 0.443107 1.742169 -53.581301 0.000000 0.000000 0.000002 7.504730 1.174530 -63.778496 1.807736 1.475706 -64.567943 0.130374 -0.912270 -43.272493 0.000001 -0.000001 0.000001 13.980920 1.201530 -55.004415 0.370871 1.161698 -65.441846 1.983992 2.147982 -57.665142 0.000000 0.000005 0.000000 4.773566 11.824135 8.167076 -32.494338 -36.062716 28.688072 -16.379736 50.213065 14.838495 8.729712 22.526678 -8.737480 13.423472 -2.098781 -20.027342 -8.764232 -25.169688 4.849641 -7.895390 -1.898583 2.107067 -0.000001 -0.000002 -0.000000 5.492980 3.124893 16.914309 -1.527247 -3.052978 17.436459 -0.817200 -5.305745 9.615598 -0.000002 -0.000001 -0.000002 0.471255 -4.349930 24.015244 1.464490 -4.840471 19.971453 -0.351574 -1.340371 10.917211 -0.000001 0.000001 -0.000004 -0.147034 -8.611641 16.389257 5.226908 -2.986218 27.218263 2.763447 -2.764189 5.728522 -0.000001 -0.000001 -0.000002 -3.465665 -10.574472 18.606410 11.621932 -1.186215 24.071475 6.972748 -2.773184 2.570789 0.000000 -0.000000 0.000006 -33.007596 10.194033 24.634460 67.371531 2.928771 -5.782036 -33.688621 1.325563 -13.865719 -0.145215 -0.004570 -0.131980 0.000000 -0.000000 -0.000000 -27.724641 4.273605 -14.440480 65.905301 13.106454 2.553336 -41.435162 -0.543461 3.493927 -1.280090 -0.068584 -0.005024 -0.000000 -0.000001 -0.000000 
-1.965424 65.576233 1.232665 -1.481481 -29.158788 0.125641 18.327510 1.016250 -2.840855 4.585027 0.623092 1.718085 0.031090 1.025291 1.946549 -13.861064 14.411960 -2.433667 -10.826349 10.526608 -0.249762 0.000000 -0.000000 -0.000000 -0.080430 -10.007393 -0.035453 -56.744419 -0.876037 -36.031072 14.407350 -72.869075 16.410656 -49.391331 -0.720103 5.258634 17.551619 -5.699179 -12.932307 10.850477 26.127721 8.644875 20.926873 51.115879 0.218860 -0.000000 -0.000003 -0.000001 10.030105 13.637037 -84.750217 0.877153 0.062258 -64.595490 1.141252 1.253156 -55.016252 0.000000 -0.000001 0.000001 8.574357 2.179138 -75.149033 -0.207620 1.009280 -57.855029 0.443105 1.742169 -53.581294 0.000000 -0.000001 0.000005 7.504732 1.174530 -63.778496 1.807742 1.475708 -64.567943 0.130376 -0.912267 -43.272493 -0.000001 -0.000002 0.000008 13.980918 1.201531 -55.004412 0.370872 1.161701 -65.441839 1.983989 2.147979 -57.665149 -0.000001 0.000003 0.000001 5.199424 12.634702 6.305497 -25.124738 -36.391074 34.435632 -21.776988 51.130885 20.717823 9.764722 22.228583 -14.344227 13.697689 -1.527339 -19.135799 -8.373996 -24.473772 5.431734 -6.539947 -4.768436 1.308448 0.000001 -0.000001 0.000001 5.728230 2.197062 17.639508 -1.530628 -3.007398 19.351703 -0.816596 -5.244361 12.090300 0.000001 0.000004 -0.000003 0.551428 -4.657587 24.999454 1.452668 -4.809433 23.015514 -0.358418 -1.329502 13.314041 -0.000000 0.000003 -0.000001 -0.226700 -8.578428 17.814747 5.090086 -3.019076 29.429793 2.690011 -2.763371 8.099909 -0.000001 -0.000003 -0.000002 -4.261475 -10.916381 21.012181 11.435777 -1.182831 26.715517 6.882514 -2.718548 5.182443 0.000001 -0.000002 0.000005 -33.090870 7.749674 27.550562 78.690883 0.011934 -7.102645 -40.273176 2.304356 -13.795340 -0.145215 -0.004546 -0.141204 0.000000 0.000000 -0.000000 -29.185863 5.656922 -15.970832 77.174642 16.652937 3.155181 -47.326268 0.403401 1.478718 -1.260321 -0.021074 0.030284 0.000000 0.000000 0.000000 
-1.308540 62.566078 0.374746 -6.529821 -29.128472 -2.132295 20.493602 1.097315 -3.289965 9.056795 0.522909 1.624662 1.400806 1.141282 2.177211 -16.460549 14.988123 -2.798657 -8.683414 10.805540 0.468575 -0.000000 0.000000 -0.000000 0.056170 -9.383000 -0.046240 -56.368086 0.186364 -37.819140 7.373223 -73.235091 8.251607 -49.051318 -0.826907 4.763357 17.551617 -5.699177 -12.932309 10.850485 26.127719 8.644873 20.926871 51.115872 0.218857 -0.000001 0.000004 0.000000 10.030104 13.637040 -84.750217 0.877149 0.062259 -64.595490 1.141251 1.253157 -55.016248 -0.000000 -0.000000 -0.000000 8.574358 2.179140 -75.149033 -0.207620 1.009280 -57.855022 0.443106 1.742168 -53.581297 0.000000 -0.000000 0.000005 7.504731 1.174531 -63.778496 1.807743 1.475708 -64.567937 0.130377 -0.912265 -43.272493 0.000001 -0.000001 0.000001 13.980914 1.201531 -55.004412 0.370870 1.161705 -65.441839 1.983993 2.147979 -57.665149 -0.000000 0.000003 0.000001 5.415481 12.762271 5.114306 -17.815560 -35.023520 39.156303 -27.147354 53.927127 26.408286 10.791474 21.114082 -19.914837 14.028567 -0.820188 -18.089736 -7.917103 -23.664089 6.102631 -5.047040 -8.083719 0.484147 -0.000005 -0.000002 -0.000000 6.024857 1.143564 18.471871 -1.543910 -2.957165 21.541583 -0.827945 -5.184268 14.920065 -0.000001 -0.000001 -0.000001 0.656291 -5.007453 26.125088 1.440447 -4.792046 26.496810 -0.368623 -1.320567 16.054638 -0.000002 0.000002 -0.000006 -0.319701 -8.551989 19.445284 4.941425 -3.078780 31.958424 2.608594 -2.777497 10.811298 0.000002 -0.000001 -0.000003 -5.141275 -11.415748 23.762213 11.246643 -1.216119 29.737530 6.785677 -2.678759 8.168760 -0.000001 0.000005 0.000003 -30.816144 6.751059 28.918232 84.242604 -2.208113 -7.825822 -43.546680 2.303066 -12.964280 -0.145190 -0.004525 -0.150410 0.000000 -0.000000 -0.000000 -27.352715 5.895277 -17.320769 82.998724 19.918314 3.316003 -50.436627 0.624314 -0.716566 -1.301674 -0.083985 0.219491 0.000000 -0.000001 -0.000000 
